:SAMPLES-PER-SECOND 30
:FULLY-SPECIFIED
:DEGREES
84
root  18.7012 39.2383 2.74943 -100.499 87.2464 -96.0359
RightUpLeg  4.16396 -0.137274 7.22558
RightLeg  14.0366 11.3537 2.13964
RightFoot  -11.6436 0.0353598 -2.81716
RightToes  -7.56701e-010 -1.59028e-015 9.93923e-017
Spine  11.8397 -0.0614528 10.5649
Spine1  8.15197 2.15133 -3.71912
HEad  -26.704 -5.79402 1.44636
LeftShoulder1  9.93923e-017 0 1.22299e-017
LeftArm  -3.82556 41.2822 -77.3199
LeftForeArm  2.87628 -4.61107 -6.56934
LeftHand  1.24402 11.6954 -10.0178
RightShoulder  1.98785e-016 -4.96962e-017 1.55301e-017
RightArm  11.8198 -7.53217 83.5209
RightForeArm  -30.6649 34.0095 -30.8165
RightHand  1.85273 -13.1575 -10.4491
LeftUpLeg  -21.8971 -3.05907 2.05321
LeftLeg  37.3082 -7.90397 2.30986
LeftFoot  3.75471 0.759277 -4.96025
LeftToes  1.17689e-009 -8.96121e-011 5.75302e-011
85
root  20.238 39.1785 2.77956 -70.9896 87.0637 -66.5827
RightUpLeg  7.47428 -0.336355 6.99345
RightLeg  12.3244 12.806 2.32909
RightFoot  -12.0492 0.0295769 -3.2621
RightToes  -7.56701e-010 -1.59028e-015 9.93923e-017
Spine  11.1891 0.575473 11.6645
Spine1  8.49086 3.16551 -5.60563
HEad  -26.7917 -6.07133 1.67772
LeftShoulder1  9.93923e-017 0 1.22299e-017
LeftArm  -4.49341 47.255 -73.9588
LeftForeArm  5.28831 -3.83017 -6.29916
LeftHand  1.26551 11.824 -9.65089
RightShoulder  1.98785e-016 -4.96962e-017 1.55301e-017
RightArm  12.3447 -1.89054 82.6808
RightForeArm  -29.7331 35.2411 -31.929
RightHand  1.90355 -13.2485 -10.9873
LeftUpLeg  -22.6648 -2.76438 1.59351
LeftLeg  26.4086 -6.92432 1.40961
LeftFoot  4.44093 0.739604 -4.62144
LeftToes  1.17689e-009 -8.96121e-011 5.75302e-011
86
root  21.7868 39.0899 2.81627 -57.1572 86.6807 -52.7945
RightUpLeg  11.0566 -0.733998 6.49829
RightLeg  10.1895 14.0787 2.54658
RightFoot  -12.2738 0.0242556 -3.41233
RightToes  -7.56701e-010 -1.59028e-015 9.93923e-017
Spine  10.5302 1.13508 12.1029
Spine1  9.1457 3.93283 -6.86386
HEad  -27.1517 -6.41507 2.02781
LeftShoulder1  9.93923e-017 0 1.22299e-017
LeftArm  -3.93534 52.2658 -70.4717
LeftForeArm  6.14307 -3.30125 -6.08692
LeftHand  1.2769 11.9993 -9.61305
RightShoulder  1.98785e-016 -4.96962e-017 1.55301e-017
RightArm  12.6325 2.58218 81.5122
RightForeArm  -28.8201 36.0138 -32.6743
RightHand  1.93437 -13.2416 -11.4995
LeftUpLeg  -22.4974 -3.49584 1.26848
LeftLeg  14.1379 -5.40734 0.549459
LeftFoot  5.49711 0.860273 -5.06636
LeftToes  1.17689e-009 -8.96121e-011 5.75302e-011
87
root  23.3547 38.9487 2.82762 -49.9158 86.3663 -45.5433
RightUpLeg  14.4222 -1.20961 5.74705
RightLeg  8.61269 15.5587 2.86557
RightFoot  -12.4896 0.0161114 -3.08725
RightToes  -7.56701e-010 -1.59028e-015 9.93923e-017
Spine  10.0874 1.57705 12.3744
Spine1  9.84528 4.64152 -7.97383
HEad  -27.6853 -6.83497 2.38824
LeftShoulder1  9.93923e-017 0 1.22299e-017
LeftArm  -2.94912 56.0266 -67.0126
LeftForeArm  6.59946 -2.89245 -5.88442
LeftHand  1.266 12.12 -10.018
RightShoulder  1.98785e-016 -4.96962e-017 1.55301e-017
RightArm  12.6503 5.37687 80.3008
RightForeArm  -28.2017 36.6272 -33.2729
RightHand  1.96771 -13.2843 -11.8918
LeftUpLeg  -22.0502 -3.69739 0.570514
LeftLeg  3.17227 -3.77214 0.180994
LeftFoot  5.42222 0.922678 -5.46443
LeftToes  1.17689e-009 -8.96121e-011 5.75302e-011
88
root  25.0065 38.7191 2.81105 -45.4896 86.0776 -41.1355
RightUpLeg  16.979 -1.45874 5.19486
RightLeg  8.70725 16.8355 2.89775
RightFoot  -12.5583 0.0125576 -2.7374
RightToes  -7.56701e-010 -1.59028e-015 9.93923e-017
Spine  9.78992 1.87927 12.573
Spine1  10.4306 5.29045 -8.96549
HEad  -28.2309 -7.22032 2.82748
LeftShoulder1  9.93923e-017 0 1.22299e-017
LeftArm  -2.43675 58.294 -63.9892
LeftForeArm  7.72232 -2.51982 -5.61598
LeftHand  1.25023 12.0482 -10.291
RightShoulder  1.98785e-016 -4.96962e-017 1.55301e-017
RightArm  12.3856 6.28675 79.4364
RightForeArm  -27.7881 37.1627 -33.7971
RightHand  2.03691 -13.4663 -12.3898
LeftUpLeg  -22.424 -3.67144 -0.211637
LeftLeg  -1.86555 -2.11087 0.0727635
LeftFoot  2.84586 0.724549 -4.99649
LeftToes  1.17689e-009 -8.96121e-011 5.75302e-011
89
root  26.7834 38.4597 2.79009 -38.3867 85.8694 -34.3727
RightUpLeg  18.7365 -1.60418 4.5194
RightLeg  9.98585 17.9572 2.75068
RightFoot  -12.0105 0.02522 -2.58548
RightToes  -7.56701e-010 -1.59028e-015 9.93923e-017
Spine  9.0881 2.28059 12.1542
Spine1  11.161 5.94226 -9.70364
HEad  -28.6888 -7.58669 3.50599
LeftShoulder1  9.93923e-017 0 1.22299e-017
LeftArm  -2.79474 59.0973 -61.9385
LeftForeArm  9.13619 -2.18058 -5.29319
LeftHand  1.24481 12.0115 -10.3721
RightShoulder  1.98785e-016 -4.96962e-017 1.55301e-017
RightArm  11.8575 5.20719 79.0791
RightForeArm  -27.5591 37.5576 -34.1849
RightHand  2.11487 -13.6417 -13.0143
LeftUpLeg  -23.647 -4.45077 -0.855304
LeftLeg  -0.10617 -0.685167 0.514013
LeftFoot  -0.0853436 0.486906 -4.1677
LeftToes  1.17689e-009 -8.96121e-011 5.75302e-011
90
root  28.7326 38.1462 2.76531 -25.5023 85.3232 -22.1167
RightUpLeg  19.778 -2.13582 2.82143
RightLeg  12.6456 19.9984 3.2801
RightFoot  -10.9889 0.0310139 -1.62578
RightToes  -7.56701e-010 -1.59028e-015 9.93923e-017
Spine  7.72182 3.00335 11.0517
Spine1  11.9335 6.68694 -10.2301
HEad  -28.9263 -7.96575 4.50392
LeftShoulder1  9.93923e-017 0 1.22299e-017
LeftArm  -3.58698 59.0208 -61.0282
LeftForeArm  9.20905 -1.93499 -5.05279
LeftHand  1.2598 12.2216 -10.2762
RightShoulder  1.98785e-016 -4.96962e-017 1.55301e-017
RightArm  11.5178 2.05852 79.4045
RightForeArm  -27.8281 37.583 -34.1897
RightHand  2.172 -13.7652 -13.467
LeftUpLeg  -24.836 -5.89272 -1.34836
LeftLeg  5.19739 0.403242 1.70423
LeftFoot  0.353213 0.367683 -3.08018
LeftToes  1.17689e-009 -8.96121e-011 5.75302e-011
91
root  30.756 37.8296 2.72561 -10.2811 84.3911 -7.46594
RightUpLeg  19.7694 -2.68737 -0.0314221
RightLeg  17.4111 22.7792 4.98515
RightFoot  -8.14457 -0.0576399 1.18738
RightToes  -7.56701e-010 -1.59028e-015 9.93923e-017
Spine  6.50988 3.69212 9.14317
Spine1  12.1785 7.21864 -10.6508
HEad  -28.7829 -8.13719 5.54444
LeftShoulder1  9.93923e-017 0 1.22299e-017
LeftArm  -4.62847 58.5533 -61.2875
LeftForeArm  7.54292 -1.81137 -4.99024
LeftHand  1.29616 12.4708 -9.7727
RightShoulder  1.98785e-016 -4.96962e-017 1.55301e-017
RightArm  12.2049 -2.722 80.7914
RightForeArm  -28.6069 36.6402 -33.2537
RightHand  2.192 -13.8546 -13.4756
LeftUpLeg  -25.5861 -8.87449 -1.34265
LeftLeg  10.834 3.15865 3.00432
LeftFoot  4.36624 0.217479 -1.33533
LeftToes  1.17689e-009 -8.96121e-011 5.75302e-011
